# File created by Blade
# Date/Time:  Tue Apr 07 20:57:01 2015
#---------------------------------------------------------
:version 1.10
:name HOM
:units
  mass 1.0
  length 1.000000
  angle deg
:documentation
     Acclaim Skeleton File
:root
   axis xyz
   order TX TY TZ RX RY RZ
   position 0.000000 0.000000 0.000000
   orientation 0 0 0
:bonedata
   begin
      id 1
      name Spine_dum
      direction 0.000000 1.000000 0.000000
      length 4.885285
      axis 0.0 0.0 0.0 xyz
   end
   begin
      id 2
      name LeftUpLeg_dum
      direction 1.000000 0.000000 0.000000
      length 2.672193
      axis 0.0 0.0 0.0 xyz
   end
   begin
      id 3
      name RightUpLeg_dum
      direction -1.000000 0.000000 0.000000
      length 2.672193
      axis 0.0 0.0 0.0 xyz
   end
   begin
      id 4
      name Spine
      direction 0.000000 1.000000 0.000000
      length 0.000000
      axis 0.0 0.0 0.0 xyz
      dof rx ry rz
   end
   begin
      id 5
      name Spine_dum1
      direction 0.000000 1.000000 0.000000
      length 16.494159
      axis 0.0 0.0 0.0 xyz
   end
   begin
      id 6
      name Spine_dum2
      direction 0.000000 1.000000 0.000000
      length 10.663448
      axis 0.0 0.0 0.0 xyz
   end
   begin
      id 7
      name Spine_dum3
      direction 0.000000 1.000000 0.000000
      length 10.663448
      axis 0.0 0.0 0.0 xyz
   end
   begin
      id 8
      name Head
      direction 0.000000 1.000000 0.000000
      length 4.527550
      axis 0.0 0.0 0.0 xyz
      dof rx ry rz
   end
   begin
      id 9
      name LeftShoulder
      direction 1.000000 0.000000 0.000000
      length 7.531907
      axis 0.0 0.0 -90.0 xyz
      dof rx ry rz
   end
   begin
      id 10
      name LeftArm
      direction 1.000000 0.000000 0.000000
      length 10.229199
      axis 0.0 0.0 -90.0 xyz
      dof rx ry rz
   end
   begin
      id 11
      name LeftForeArm
      direction 1.000000 0.000000 0.000000
      length 8.673495
      axis 0.0 0.0 -90.0 xyz
      dof ry rz rx
   end
   begin
      id 12
      name LeftHand
      direction 0.000000 0.000000 0.000000
      length 0.000000
      axis 0.0 0.0 -90.0 xyz
      dof rx ry rz
   end
   begin
      id 13
      name LeftHand_dum1
      direction 0.000000 0.000000 0.000000
      length 0.000000
      axis 0.0 0.0 -90.0 xyz
   end
   begin
      id 14
      name LeftHand_dum2
      direction 1.000000 0.000000 0.000000
      length 3.937000
      axis 0.0 0.0 -90.0 xyz
   end
   begin
      id 15
      name LeftHandThumb1
      direction 0.000000 0.000000 1.000000
      length 3.937000
      axis 0.0 0.0 -90.0 xyz
      dof rx rz ry
   end
   begin
      id 16
      name RightShoulder
      direction -1.000000 0.000000 0.000000
      length 7.531907
      axis 0.0 0.0 90.0 xyz
      dof rx ry rz
   end
   begin
      id 17
      name RightArm
      direction -1.000000 0.000000 0.000000
      length 10.229199
      axis 0.0 0.0 90.0 xyz
      dof rx ry rz
   end
   begin
      id 18
      name RightForeArm
      direction -1.000000 0.000000 0.000000
      length 8.673495
      axis 0.0 0.0 90.0 xyz
      dof ry rz rx
   end
   begin
      id 19
      name RightHand
      direction 0.000000 0.000000 0.000000
      length 0.000000
      axis 0.0 0.0 90.0 xyz
      dof rx ry rz
   end
   begin
      id 20
      name RightHand_dum1
      direction 0.000000 0.000000 0.000000
      length 0.000000
      axis 0.0 0.0 90.0 xyz
   end
   begin
      id 21
      name RightHand_dum2
      direction -1.000000 0.000000 0.000000
      length 3.937000
      axis 0.0 0.0 90.0 xyz
   end
   begin
      id 22
      name RightHandThumb1
      direction 0.000000 0.000000 1.000000
      length 3.937000
      axis 0.0 0.0 90.0 xyz
      dof rx rz ry
   end
   begin
      id 23
      name LeftUpLeg
      direction 0.000000 -1.000000 0.000000
      length 16.263388
      axis 0.0 0.0 0.0 xyz
      dof rx ry rz
   end
   begin
      id 24
      name LeftLeg
      direction 0.000000 -1.000000 0.000000
      length 14.328163
      axis 0.0 0.0 0.0 xyz
      dof rx ry rz
   end
   begin
      id 25
      name LeftFoot
      direction 0.000000 -0.258819 0.965926
      length 5.031290
      axis 15.0 0.0 0.0 xyz
      dof rx ry rz
   end
   begin
      id 26
      name LeftToeBase
      direction 0.000000 0.000000 1.000000
      length 2.952750
      axis 0.0 0.0 0.0 xyz
      dof rx ry rz
   end
   begin
      id 27
      name RightUpLeg
      direction 0.000000 -1.000000 0.000000
      length 16.263388
      axis 0.0 0.0 0.0 xyz
      dof rx ry rz
   end
   begin
      id 28
      name RightLeg
      direction 0.000000 -1.000000 0.000000
      length 14.328163
      axis 0.0 0.0 0.0 xyz
      dof rx ry rz
   end
   begin
      id 29
      name RightFoot
      direction 0.000000 -0.258819 0.965926
      length 5.031290
      axis 15.0 0.0 0.0 xyz
      dof rx ry rz
   end
   begin
      id 30
      name RightToeBase
      direction 0.000000 0.000000 1.000000
      length 2.952750
      axis 0.0 0.0 0.0 xyz
      dof rx ry rz
   end
:hierarchy
   begin
      root Spine_dum LeftUpLeg_dum RightUpLeg_dum
      Spine_dum Spine
      LeftUpLeg_dum LeftUpLeg
      RightUpLeg_dum RightUpLeg
      Spine Spine_dum1 Spine_dum2 Spine_dum3
      Spine_dum1 Head
      Spine_dum2 LeftShoulder
      Spine_dum3 RightShoulder
      LeftShoulder LeftArm
      LeftArm LeftForeArm
      LeftForeArm LeftHand
      LeftHand LeftHand_dum1 LeftHand_dum2
      LeftHand_dum1 LeftHandThumb1
      RightShoulder RightArm
      RightArm RightForeArm
      RightForeArm RightHand
      RightHand RightHand_dum1 RightHand_dum2
      RightHand_dum1 RightHandThumb1
      LeftUpLeg LeftLeg
      LeftLeg LeftFoot
      LeftFoot LeftToeBase
      RightUpLeg RightLeg
      RightLeg RightFoot
      RightFoot RightToeBase
   end

# File created by Blade
# Date/Time:  Tue Apr 07 20:57:09 2015
# Frame Rate: 120.000 fps
#------------------------------------------------------
:FULLY-SPECIFIED
:DEGREES
72
root 1.260586 32.910763 1.444417 5.106287 1.918307 -2.190123
Spine -7.328509 -7.015091 0.087898
Head 18.657043 -8.237804 1.107618
LeftShoulder -23.787373 42.486698 19.968914
LeftArm 58.873344 -61.716912 -59.388675
LeftForeArm 8.793010 -0.000000 -1.838349
LeftHand 2.079015 -0.000000 7.781308
LeftHandThumb1 -26.253704 0.000000 33.147579
RightShoulder -10.401035 2.980056 -31.828415
RightArm 14.712901 15.087855 35.737769
RightForeArm -15.218357 0.000000 1.252052
RightHand 3.578593 -0.000000 -1.375467
RightHandThumb1 -24.326973 -0.000000 -32.862282
LeftUpLeg 2.369563 -6.057853 1.666285
LeftLeg -4.739586 -0.000000 0.000000
LeftFoot -4.694032 7.063208 -16.433144
LeftToeBase -8.761052 -0.000000 0.000000
RightUpLeg 2.420406 -2.124906 3.811575
RightLeg -3.975940 -0.000000 0.000000
RightFoot -5.996788 -7.715770 9.044842
RightToeBase -1.718875 -0.000000 0.000000
73
root 1.266837 32.910688 1.442194 5.089547 1.873036 -2.229405
Spine -7.290085 -7.019308 0.147580
Head 18.722975 -8.471095 1.148259
LeftShoulder -23.785478 42.552946 19.889973
LeftArm 58.819955 -61.411192 -59.359731
LeftForeArm 8.772113 -0.000000 -2.148131
LeftHand 1.810729 0.000000 7.459169
LeftHandThumb1 -26.253704 0.000000 33.147579
RightShoulder -10.325832 2.844606 -31.713375
RightArm 14.755639 14.932410 35.895964
RightForeArm -15.119724 0.000000 1.214085
RightHand 3.711917 0.000000 -1.242350
RightHandThumb1 -24.326973 -0.000000 -32.862282
LeftUpLeg 2.374003 -5.943358 1.683673
LeftLeg -4.710451 -0.000000 0.000000
LeftFoot -4.719692 7.031975 -16.425586
LeftToeBase -8.752338 -0.000000 0.000000
RightUpLeg 2.413742 -2.075457 3.827938
RightLeg -3.936292 -0.000000 0.000000
RightFoot -6.018705 -7.675611 9.119067
RightToeBase -1.747283 -0.000000 0.000000
74
root 1.273880 32.910177 1.439044 5.077171 1.815348 -2.291965
Spine -7.246925 -7.004797 0.240951
Head 18.760648 -8.759577 1.164936
LeftShoulder -23.785697 42.641872 19.802272
LeftArm 58.799475 -61.108500 -59.410820
LeftForeArm 8.556748 -0.000000 -2.450628
LeftHand 1.901886 -0.000000 7.313366
LeftHandThumb1 -26.253704 0.000000 33.147579
RightShoulder -10.255266 2.663566 -31.607880
RightArm 14.789600 14.929729 36.092106
RightForeArm -15.045588 -0.000000 1.233120
RightHand 3.794098 0.000000 -1.210144
RightHandThumb1 -24.326973 -0.000000 -32.862282
LeftUpLeg 2.379144 -5.812241 1.724305
LeftLeg -4.691731 -0.000000 0.000000
LeftFoot -4.756802 6.999815 -16.449555
LeftToeBase -8.789583 -0.000000 0.000000
RightUpLeg 2.395193 -2.017688 3.865607
RightLeg -3.884672 -0.000000 0.000000
RightFoot -6.048391 -7.620540 9.192122
RightToeBase -1.716520 -0.000000 0.000000
75
root 1.281524 32.910340 1.433976 5.075301 1.749986 -2.357724
Spine -7.204964 -6.995948 0.345827
Head 18.787485 -9.076201 1.171754
LeftShoulder -23.832129 42.773039 19.662830
LeftArm 59.030039 -60.872003 -59.725462
LeftForeArm 8.527323 -0.000000 -2.713509
LeftHand 1.839877 0.000000 7.186667
LeftHandThumb1 -26.253704 0.000000 33.147579
RightShoulder -10.193558 2.541504 -31.524944
RightArm 14.821104 14.947649 36.315267
RightForeArm -14.939524 0.000000 1.234284
RightHand 3.872651 -0.000000 -1.244973
RightHandThumb1 -24.326973 -0.000000 -32.862282
LeftUpLeg 2.367419 -5.671835 1.768817
LeftLeg -4.667104 -0.000000 0.000000
LeftFoot -4.789546 6.965975 -16.417762
LeftToeBase -8.631061 -0.000000 0.000000
RightUpLeg 2.340692 -2.002121 3.907331
RightLeg -3.791614 -0.000000 0.000000
RightFoot -6.090608 -7.539083 9.242898
RightToeBase -1.718474 -0.000000 0.000000
76
root 1.289928 32.911075 1.428430 5.088524 1.679796 -2.432267
Spine -7.175753 -6.983158 0.473371
Head 18.809153 -9.454296 1.142999
LeftShoulder -23.846284 42.864453 19.541094
LeftArm 59.130741 -60.655757 -60.023236
LeftForeArm 8.467083 -0.000000 -2.816909
LeftHand 1.848565 -0.000000 6.880217
LeftHandThumb1 -26.253704 0.000000 33.147579
RightShoulder -10.143023 2.416699 -31.456221
RightArm 14.837292 15.027224 36.558657
RightForeArm -14.851989 -0.000000 1.280440
RightHand 3.939458 -0.000000 -1.268648
RightHandThumb1 -24.326973 -0.000000 -32.862282
LeftUpLeg 2.339036 -5.492826 1.819829
LeftLeg -4.634865 -0.000000 0.000000
LeftFoot -4.800229 6.905725 -16.383215
LeftToeBase -8.646264 -0.000000 0.000000
RightUpLeg 2.270870 -1.947095 3.955994
RightLeg -3.700700 -0.000000 0.000000
RightFoot -6.123883 -7.482707 9.292881
RightToeBase -1.735332 -0.000000 0.000000
77
root 1.296528 32.912533 1.419475 5.133487 1.602058 -2.521861
Spine -7.168283 -6.952082 0.613135
Head 18.827586 -9.844846 1.118717
LeftShoulder -23.839847 42.906980 19.444014
LeftArm 59.182382 -60.409562 -60.282863
LeftForeArm 8.362178 0.000000 -2.870625
LeftHand 1.660249 -0.000000 6.839645
LeftHandThumb1 -26.253704 0.000000 33.147579
RightShoulder -10.121875 2.351916 -31.391019
RightArm 14.827695 15.112335 36.801001
RightForeArm -14.777200 -0.000000 1.329793
RightHand 4.034058 -0.000000 -1.388044
RightHandThumb1 -24.326973 -0.000000 -32.862282
LeftUpLeg 2.270369 -5.310316 1.894239
LeftLeg -4.600358 -0.000000 0.000000
LeftFoot -4.819503 6.836624 -16.333080
LeftToeBase -8.621232 -0.000000 0.000000
RightUpLeg 2.156903 -1.849612 4.028123
RightLeg -3.603733 -0.000000 0.000000
RightFoot -6.147582 -7.481430 9.317041
RightToeBase -1.709666 -0.000000 0.000000
78
root 1.304108 32.914979 1.410147 5.188872 1.513543 -2.604946
Spine -7.166702 -6.940791 0.753104
Head 18.857989 -10.294587 1.079220
LeftShoulder -23.872829 42.948992 19.317079
LeftArm 59.390194 -60.237726 -60.760491
LeftForeArm 8.306551 0.000000 -2.892589
LeftHand 1.655746 -0.000000 6.700874
LeftHandThumb1 -26.253704 0.000000 33.147579
RightShoulder -10.099912 2.341436 -31.319063
RightArm 14.802589 15.215900 37.035509
RightForeArm -14.788957 -0.000000 1.420310
RightHand 4.056333 0.000000 -1.408107
RightHandThumb1 -24.326973 -0.000000 -32.862282
LeftUpLeg 2.196008 -5.135707 1.954734
LeftLeg -4.575080 -0.000000 0.000000
LeftFoot -4.799421 6.811306 -16.219456
LeftToeBase -8.731695 -0.000000 0.000000
RightUpLeg 2.013823 -1.761278 4.095963
RightLeg -3.473125 -0.000000 0.000000
RightFoot -6.162238 -7.479126 9.272747
RightToeBase -1.749724 -0.000000 0.000000
79
root 1.311709 32.918675 1.399192 5.260174 1.406694 -2.697276
Spine -7.178439 -6.884041 0.899091
Head 18.890796 -10.783596 1.048971
LeftShoulder -23.854674 43.006867 19.209595
LeftArm 59.625780 -60.104581 -61.310645
LeftForeArm 8.431604 -0.000000 -2.838631
LeftHand 1.617364 -0.000000 6.632484
LeftHandThumb1 -26.253704 0.000000 33.147579
RightShoulder -10.107127 2.312339 -31.244944
RightArm 14.779589 15.202142 37.237015
RightForeArm -14.680452 0.000000 1.490302
RightHand 4.150470 -0.000000 -1.534758
RightHandThumb1 -24.326973 -0.000000 -32.862282
LeftUpLeg 2.107655 -5.005123 2.020968
LeftLeg -4.554530 -0.000000 0.000000
LeftFoot -4.791758 6.864242 -16.133695
LeftToeBase -8.837287 -0.000000 0.000000
RightUpLeg 1.831452 -1.681107 4.174272
RightLeg -3.301897 -0.000000 0.000000
RightFoot -6.175224 -7.459515 9.229981
RightToeBase -1.827022 -0.000000 0.000000
80
root 1.317297 32.922986 1.386719 5.344651 1.281852 -2.805507
Spine -7.196345 -6.830893 1.057234
Head 18.959157 -11.316796 1.005033
LeftShoulder -23.849268 43.022183 19.106401
LeftArm 59.728147 -59.943378 -61.762747
LeftForeArm 8.514201 -0.000000 -2.706473
LeftHand 1.554757 -0.000000 6.954891
LeftHandThumb1 -26.253704 0.000000 33.147579
RightShoulder -10.102179 2.305751 -31.158286
RightArm 14.735352 15.224791 37.434091
RightForeArm -14.606893 -0.000000 1.599068
RightHand 4.138610 -0.000000 -1.472364
RightHandThumb1 -24.326973 -0.000000 -32.862282
LeftUpLeg 1.997471 -4.841229 2.106446
LeftLeg -4.519171 -0.000000 0.000000
LeftFoot -4.793100 6.904327 -16.042549
LeftToeBase -8.986039 -0.000000 0.000000
RightUpLeg 1.621799 -1.571014 4.274005
RightLeg -3.110454 -0.000000 0.000000
RightFoot -6.196981 -7.458160 9.176350
RightToeBase -1.840511 -0.000000 0.000000
